<mxfile host="app.diagrams.net" modified="2021-11-30T11:37:09.570Z" agent="5.0 (Windows NT 10.0; Win64; x64) AppleWebKit/537.36 (KHTML, like Gecko) Chrome/96.0.4664.45 Safari/537.36" etag="jseU7Gxava7_9vFp2dZ1" version="15.8.7" type="github">
  <diagram id="dznNDerfZcz51l3KiYHF" name="Page-1">
    <mxGraphModel dx="2397" dy="1123" grid="1" gridSize="10" guides="1" tooltips="1" connect="1" arrows="1" fold="1" page="1" pageScale="1" pageWidth="827" pageHeight="1169" math="0" shadow="0">
      <root>
        <mxCell id="0" />
        <mxCell id="1" parent="0" />
        <mxCell id="bohg3g4Kld91jnJxJGzG-1" value="Input x (integer)" style="shape=parallelogram;perimeter=parallelogramPerimeter;whiteSpace=wrap;html=1;fixedSize=1;" parent="1" vertex="1">
          <mxGeometry x="90" y="70" width="120" height="60" as="geometry" />
        </mxCell>
        <mxCell id="bohg3g4Kld91jnJxJGzG-5" value="" style="endArrow=classic;html=1;rounded=0;" parent="1" edge="1">
          <mxGeometry width="50" height="50" relative="1" as="geometry">
            <mxPoint x="200" y="100" as="sourcePoint" />
            <mxPoint x="280" y="100" as="targetPoint" />
          </mxGeometry>
        </mxCell>
        <mxCell id="bohg3g4Kld91jnJxJGzG-6" value="if input &amp;gt; 1 and" style="rhombus;whiteSpace=wrap;html=1;" parent="1" vertex="1">
          <mxGeometry x="280" y="60" width="80" height="80" as="geometry" />
        </mxCell>
        <mxCell id="bohg3g4Kld91jnJxJGzG-7" value="" style="endArrow=classic;html=1;rounded=0;exitX=0.5;exitY=1;exitDx=0;exitDy=0;" parent="1" source="bohg3g4Kld91jnJxJGzG-6" edge="1">
          <mxGeometry width="50" height="50" relative="1" as="geometry">
            <mxPoint x="390" y="360" as="sourcePoint" />
            <mxPoint x="320" y="190" as="targetPoint" />
          </mxGeometry>
        </mxCell>
        <mxCell id="bohg3g4Kld91jnJxJGzG-9" value="" style="endArrow=classic;html=1;rounded=0;exitX=1;exitY=0.5;exitDx=0;exitDy=0;" parent="1" source="bohg3g4Kld91jnJxJGzG-6" edge="1">
          <mxGeometry width="50" height="50" relative="1" as="geometry">
            <mxPoint x="390" y="360" as="sourcePoint" />
            <mxPoint x="450" y="100" as="targetPoint" />
            <Array as="points">
              <mxPoint x="370" y="100" />
            </Array>
          </mxGeometry>
        </mxCell>
        <mxCell id="bohg3g4Kld91jnJxJGzG-10" value="for i range (2,x-1)&lt;br&gt;i%i==0&lt;br&gt;" style="whiteSpace=wrap;html=1;aspect=fixed;" parent="1" vertex="1">
          <mxGeometry x="450" y="60" width="80" height="80" as="geometry" />
        </mxCell>
        <mxCell id="bohg3g4Kld91jnJxJGzG-11" value="" style="endArrow=classic;html=1;rounded=0;" parent="1" edge="1">
          <mxGeometry width="50" height="50" relative="1" as="geometry">
            <mxPoint x="530" y="100" as="sourcePoint" />
            <mxPoint x="570" y="100" as="targetPoint" />
          </mxGeometry>
        </mxCell>
        <mxCell id="bohg3g4Kld91jnJxJGzG-14" value="yes" style="text;html=1;strokeColor=none;fillColor=none;align=center;verticalAlign=middle;whiteSpace=wrap;rounded=0;" parent="1" vertex="1">
          <mxGeometry x="520" y="70" width="60" height="30" as="geometry" />
        </mxCell>
        <mxCell id="bohg3g4Kld91jnJxJGzG-15" value="No" style="text;html=1;strokeColor=none;fillColor=none;align=center;verticalAlign=middle;whiteSpace=wrap;rounded=0;" parent="1" vertex="1">
          <mxGeometry x="380" y="150" width="60" height="30" as="geometry" />
        </mxCell>
        <mxCell id="bohg3g4Kld91jnJxJGzG-16" value="" style="endArrow=classic;html=1;rounded=0;exitX=0.5;exitY=1;exitDx=0;exitDy=0;entryX=1;entryY=0.5;entryDx=0;entryDy=0;" parent="1" source="bohg3g4Kld91jnJxJGzG-10" target="kmWAboHODe7tPZGvg9IQ-4" edge="1">
          <mxGeometry width="50" height="50" relative="1" as="geometry">
            <mxPoint x="390" y="300" as="sourcePoint" />
            <mxPoint x="360" y="220" as="targetPoint" />
          </mxGeometry>
        </mxCell>
        <mxCell id="kmWAboHODe7tPZGvg9IQ-2" style="edgeStyle=orthogonalEdgeStyle;rounded=0;orthogonalLoop=1;jettySize=auto;html=1;exitX=1;exitY=0.5;exitDx=0;exitDy=0;" edge="1" parent="1" source="bohg3g4Kld91jnJxJGzG-18">
          <mxGeometry relative="1" as="geometry">
            <mxPoint x="750" y="130" as="targetPoint" />
          </mxGeometry>
        </mxCell>
        <mxCell id="bohg3g4Kld91jnJxJGzG-18" value="Prime &lt;br&gt;number" style="whiteSpace=wrap;html=1;aspect=fixed;" parent="1" vertex="1">
          <mxGeometry x="610" y="410" width="80" height="80" as="geometry" />
        </mxCell>
        <mxCell id="bohg3g4Kld91jnJxJGzG-21" style="edgeStyle=orthogonalEdgeStyle;rounded=0;orthogonalLoop=1;jettySize=auto;html=1;exitX=1;exitY=0.5;exitDx=0;exitDy=0;" parent="1" source="bohg3g4Kld91jnJxJGzG-19" target="bohg3g4Kld91jnJxJGzG-1" edge="1">
          <mxGeometry relative="1" as="geometry" />
        </mxCell>
        <mxCell id="bohg3g4Kld91jnJxJGzG-19" value="Start" style="rounded=1;whiteSpace=wrap;html=1;" parent="1" vertex="1">
          <mxGeometry x="-50" y="70" width="120" height="60" as="geometry" />
        </mxCell>
        <mxCell id="kmWAboHODe7tPZGvg9IQ-1" value="if x%i" style="rhombus;whiteSpace=wrap;html=1;" vertex="1" parent="1">
          <mxGeometry x="570" y="55" width="120" height="90" as="geometry" />
        </mxCell>
        <mxCell id="kmWAboHODe7tPZGvg9IQ-4" value="Not a prime number" style="rounded=0;whiteSpace=wrap;html=1;" vertex="1" parent="1">
          <mxGeometry x="250" y="190" width="120" height="60" as="geometry" />
        </mxCell>
      </root>
    </mxGraphModel>
  </diagram>
</mxfile>
